/* XPM */
static char *_dcda2379e644fbbfb8e39065ce4a229[] = {
/* columns rows colors chars-per-pixel */
"32 32 201 2 ",
"   c None",
".  c #161616",
"X  c #1B1516",
"o  c #1D161A",
"O  c #171E1C",
"+  c #1C1C1C",
"@  c #211515",
"#  c #21171B",
"$  c #221C1D",
"%  c #281D1D",
"&  c #0C380F",
"*  c #1D2C1F",
"=  c #132614",
"-  c #0D3212",
";  c #0F3F19",
":  c #0E3F11",
">  c #14391B",
",  c #17331C",
"<  c #1F1F20",
"1  c #231E22",
"2  c #281B21",
"3  c #2C1F28",
"4  c #1D2423",
"5  c #1D2B24",
"6  c #142929",
"7  c #1B2D2B",
"8  c #142121",
"9  c #0A302F",
"0  c #1B3223",
"q  c #10322F",
"w  c #1B322C",
"e  c #143C2C",
"r  c #103C21",
"t  c #0B3A3B",
"y  c #0A3535",
"u  c #113635",
"i  c #1B3233",
"p  c #133C32",
"a  c #10383A",
"s  c #1D3D39",
"d  c #242324",
"f  c #2A2426",
"g  c #232A25",
"h  c #202728",
"j  c #2B2328",
"k  c #242C2A",
"l  c #2B2B2B",
"z  c #32242C",
"x  c #322D2E",
"c  c #3B2E2E",
"v  c #342725",
"b  c #25322B",
"n  c #2A342C",
"m  c #213F24",
"M  c #36302F",
"N  c #332C32",
"B  c #273333",
"V  c #2C3332",
"C  c #293931",
"Z  c #2E3A3A",
"A  c #273A3C",
"S  c #343334",
"D  c #3B3435",
"F  c #3F3837",
"G  c #3B343A",
"H  c #343C3B",
"J  c #3B3B3B",
"K  c #343837",
"L  c #413635",
"P  c #433B3B",
"I  c #43373A",
"U  c #045B0E",
"Y  c #0B4113",
"T  c #094A14",
"R  c #0A451A",
"E  c #0A4B1A",
"W  c #124119",
"Q  c #15481A",
"!  c #035512",
"~  c #05531A",
"^  c #025B1C",
"/  c #085A18",
"(  c #14521D",
")  c #006A08",
"_  c #00640E",
"`  c #0C4523",
"'  c #06442B",
"]  c #0D492B",
"[  c #0B4E22",
"{  c #18492A",
"}  c #065221",
"|  c #025A21",
" . c #02522A",
".. c #095029",
"X. c #005C28",
"o. c #0C5924",
"O. c #115B2B",
"+. c #05443C",
"@. c #044D3D",
"#. c #064736",
"$. c #144532",
"%. c #04513B",
"&. c #005235",
"*. c #195431",
"=. c #234125",
"-. c #24512C",
";. c #254A3A",
":. c #364938",
">. c #345138",
",. c #0F672F",
"<. c #0D6024",
"1. c #056B33",
"2. c #076F3F",
"3. c #00653C",
"4. c #196634",
"5. c #027B3A",
"6. c #13793D",
"7. c #46403F",
"8. c #4A403F",
"9. c #093E41",
"0. c #193E41",
"q. c #293F40",
"w. c #353F40",
"e. c #483C40",
"r. c #084044",
"t. c #004C45",
"y. c #0E4B47",
"u. c #044D4D",
"i. c #0C4A4E",
"p. c #014541",
"a. c #144543",
"s. c #1E4245",
"d. c #154A44",
"f. c #1A474A",
"g. c #14494C",
"h. c #075748",
"j. c #155343",
"k. c #195A44",
"l. c #054E52",
"z. c #174C51",
"x. c #00555A",
"c. c #005C5D",
"v. c #0A5558",
"b. c #13555B",
"n. c #165B5F",
"m. c #1B5458",
"M. c #2A4647",
"N. c #344142",
"B. c #3C4542",
"V. c #324B48",
"C. c #335B43",
"Z. c #2F5B5F",
"A. c #096745",
"S. c #186B49",
"D. c #007844",
"F. c #1E734A",
"G. c #046359",
"H. c #007256",
"J. c #1C765D",
"K. c #2B6448",
"L. c #25715B",
"P. c #095D60",
"I. c #185A60",
"U. c #175E62",
"Y. c #275D62",
"T. c #006060",
"R. c #086862",
"E. c #06666B",
"W. c #006868",
"Q. c #09696B",
"!. c #156369",
"~. c #09716C",
"^. c #097968",
"/. c #1F7569",
"(. c #0A6F72",
"). c #007177",
"_. c #057775",
"`. c #197277",
"'. c #246368",
"]. c #3C6063",
"[. c #236F75",
"{. c #217175",
"}. c #3C777B",
"|. c #434243",
" X c #4A4241",
".X c #424946",
"XX c #4C4B4B",
"oX c #454D4B",
"OX c #514544",
"+X c #504B4D",
"@X c #484F50",
"#X c #5C4E57",
"$X c #465758",
"%X c #455B5D",
"&X c #63545B",
"*X c #008834",
"=X c #178047",
"-X c #027C83",
";X c #287B81",
":X c #00878E",
">X c #008281",
/* pixels */
"                                                                ",
"                                v                               ",
"                      M V.'.[.[.!.I.m.z.M.d                     ",
"                  k m.`.;X;X].w.$X%X%XZ.'.b.0.8                 ",
"              % f.!.'.@XOXOXP x S M S L P XXM.i.u o             ",
"            d b.Y.XXP F K S S J S j l g d d j |.s.9.O           ",
"          d b.0.S F K J P J S V J S l f $ + o d  XA r.8         ",
"        $ v.V.x N S F m.V.D S l S l g 1 5 a + . o P B t o       ",
"      @ g.f. Xn w.K I !.-Xw.c N l l f 4 l.r.X O o 4 7.i y X     ",
"      i g.P l M P J L U.:X_.Z N l f h l.x.t X o + . d P q 6     ",
"    $ i.N.D l x P L P H (.-XE.B v k v.x.i.k d # o + . l d t .   ",
"    i g.P f l f.U.n.N.L K Q.).P.i v.c.u.k $ d t y 9 . + M q 6   ",
"    a.M.D < x Z E._.-Xq.w.w.G.E.P.G.u.4 @ O r.t.p.8 . . S k u   ",
"  + g.B.M d l S w.Q.=X_.w.z V v.G.u.4 + 4 p.t.+.* . o + + + u * ",
"  5 g.f d S K S G :.Q._.P.K x V y.5 # 4 +.%.#.8 o + 1 d o X u 5 ",
"  7 a.$ g l J K S D N./.~.v.Z x l $ 4 @.%.#.4 $ 1 d 4 d + o e w ",
"  7 d.z l l G K K J P oXJ.H.h.f l 1 ' %.&.5 $ d d O O d + d e w ",
"  w d.l l l |.|.S S B.L.L.A.b d j 1 * '  .' 4 1 + d d d d o p w ",
"  7 j.f d l |.|.z V A.D.3.b 1 4 ] k 3 d ]  .` 4 $ * 1 j o X $.5 ",
"  d k.K K l S S n A.5.1.k $ g ..X...k j g ` } R d 1 + + 1 * $.d ",
"    j.V.XXl K C 5.*X1.b x k [ | | | [ g j d R ~ R * 1 4 N n $.  ",
"    C k. XS N *.,.O.b j l o.U ~ 0 E ^ E d j g > ; > d d S e 0   ",
"    d S.B.XXn x z j j g / _ ! g j g E ! R k f 1 d 1 $ N V ` 1   ",
"      ;.S.&Xe.f l l j T ) ! 5 f j j g T ! W d d d d l S r 0     ",
"      z F.K.&XS f l 1 T U 5 d d l d 3 * T W d f d d N 0 ` #     ",
"        D =XC.#Xx d d W * 1 d f g d d 1 b > d d d J k R +       ",
"          H 6.C.#XS d $ d d d l l d < l l 1 d < 1 0 Y =         ",
"            S 4.4.|.N S d < d g d d d x < f G x - ; o           ",
"              z -.o.-..XG F D D l f S N l n m Y , o             ",
"                  k { / [ -.>.>.n n :.=.W Y - O                 ",
"                      f * Q { ( T : & - = o                     ",
"                                #                               "
};
