/* XPM */
static char *cc8679fcf97a48e6e0477651fc634145[] = {
/* columns rows colors chars-per-pixel */
"64 64 238 2 ",
"   c None",
".  c #160E0E",
"X  c #180E13",
"o  c #151515",
"O  c #1C1516",
"+  c #1C151A",
"@  c #1C1B1B",
"#  c #1B1918",
"$  c #20161D",
"%  c #231C1D",
"&  c #291E1D",
"*  c #201716",
"=  c #083C0D",
"-  c #162419",
";  c #162919",
":  c #0D3817",
">  c #15331C",
",  c #153A1E",
"<  c #143519",
"1  c #2C201F",
"2  c #1F1F20",
"3  c #241D22",
"4  c #291E24",
"5  c #271B25",
"6  c #152424",
"7  c #1D2323",
"8  c #122B24",
"9  c #1B2C2C",
"0  c #182B28",
"q  c #0E352F",
"w  c #0D3427",
"e  c #153423",
"r  c #1A3B23",
"t  c #15342D",
"y  c #1A362B",
"u  c #143B2B",
"i  c #193B29",
"p  c #1A3626",
"a  c #1B2F31",
"s  c #0D3434",
"d  c #093B3A",
"f  c #163332",
"g  c #133A32",
"h  c #133B3B",
"j  c #1A3837",
"k  c #0E2B2C",
"l  c #242324",
"z  c #2A2325",
"x  c #272728",
"c  c #2B2429",
"v  c #262A2A",
"b  c #2B2B2B",
"n  c #232B25",
"m  c #322524",
"M  c #32252D",
"N  c #332C2D",
"B  c #392E2D",
"V  c #342827",
"C  c #23322C",
"Z  c #26322A",
"A  c #3B302F",
"S  c #2F2F30",
"D  c #332E32",
"F  c #3A2D35",
"G  c #2E3231",
"H  c #243735",
"J  c #333333",
"K  c #3B3434",
"L  c #3D343A",
"P  c #3B3B3B",
"I  c #353B37",
"U  c #403534",
"Y  c #423C3C",
"T  c #403837",
"R  c #07490D",
"E  c #025C0C",
"W  c #04570A",
"Q  c #0D4414",
"!  c #074D15",
"~  c #094D14",
"^  c #0E441A",
"/  c #064D1D",
"(  c #084D1C",
")  c #12431B",
"_  c #114B19",
"`  c #065315",
"'  c #095216",
"]  c #025A14",
"[  c #04551B",
"{  c #09521B",
"}  c #035B1B",
"|  c #0C5C19",
" . c #16581E",
".. c #00630B",
"X. c #006B07",
"o. c #056417",
"O. c #047216",
"+. c #037C16",
"@. c #10641B",
"#. c #094D22",
"$. c #014C2B",
"%. c #064A28",
"&. c #134324",
"*. c #194327",
"=. c #045523",
"-. c #045922",
";. c #04522B",
":. c #045B2A",
">. c #08572D",
",. c #18522E",
"<. c #00453D",
"1. c #014C3B",
"2. c #0A4C3B",
"3. c #084635",
"4. c #1A4B35",
"5. c #154838",
"6. c #005134",
"7. c #085739",
"8. c #185236",
"9. c #294939",
"0. c #27402E",
"q. c #066427",
"w. c #06782A",
"e. c #066736",
"r. c #007B34",
"t. c #00733B",
"y. c #047738",
"u. c #117A3A",
"i. c #106024",
"p. c #4F413F",
"a. c #0C3E41",
"s. c #113D40",
"d. c #213F41",
"f. c #463B43",
"g. c #024443",
"h. c #024A43",
"j. c #054549",
"k. c #044B4A",
"l. c #0D484A",
"z. c #1B4343",
"x. c #114D45",
"c. c #1C4B4C",
"v. c #144648",
"b. c #055344",
"n. c #05524A",
"m. c #0E554C",
"M. c #075946",
"N. c #195447",
"B. c #004E52",
"V. c #0B4C50",
"C. c #1E4F52",
"Z. c #015355",
"A. c #005B55",
"S. c #01555A",
"D. c #0B565C",
"F. c #025B5D",
"G. c #0B5A56",
"H. c #1D595B",
"J. c #195659",
"K. c #234645",
"L. c #374B4C",
"P. c #245656",
"I. c #2B5650",
"U. c #006D4A",
"Y. c #016847",
"T. c #007441",
"R. c #00774B",
"E. c #19734A",
"W. c #03615C",
"Q. c #066858",
"!. c #057758",
"~. c #1E7156",
"^. c #25755D",
"/. c #035D63",
"(. c #0B5D64",
"). c #145E63",
"_. c #285F63",
"`. c #036364",
"'. c #0D6166",
"]. c #03656B",
"[. c #0C6369",
"{. c #026A6E",
"}. c #036A65",
"|. c #14656B",
" X c #037469",
".X c #157A67",
"XX c #036E73",
"oX c #0A6C75",
"OX c #037476",
"+X c #027B74",
"@X c #03747C",
"#X c #037A7C",
"$X c #0E737B",
"%X c #16747B",
"&X c #1F6A70",
"*X c #2B7762",
"=X c #434343",
"-X c #4B4B4B",
";X c #4B4546",
":X c #524C4C",
">X c #514443",
",X c #535353",
"<X c #5A5354",
"1X c #5B5B5B",
"2X c #5A5659",
"3X c #4F5050",
"4X c #665A59",
"5X c #61504F",
"6X c #4C625C",
"7X c #605F60",
"8X c #5F6060",
"9X c #636363",
"0X c #6D6C6C",
"qX c #6A6665",
"wX c #737373",
"eX c gray48",
"rX c #02831F",
"tX c #038838",
"yX c #049736",
"uX c #018E26",
"iX c #028446",
"pX c #048A5B",
"aX c #0A9655",
"sX c #138245",
"dX c #06AC57",
"fX c #03AB51",
"gX c #0B8271",
"hX c #32856D",
"jX c #468675",
"kX c #027D82",
"lX c #097983",
"zX c #127E86",
"xX c #04828A",
"cX c #148389",
"vX c #038994",
"bX c #108C95",
"nX c #059CA6",
"mX c #06A7B3",
/* pixels */
"                                                                                                                                ",
"                                                                                                                                ",
"                                                              S J b                                                             ",
"                                                J K K K U U A B B V V V m m c b J                                               ",
"                                          S N F U L L._.%XcXcXcXzXlXoX|.J.c.H D N N c l                                         ",
"                                      b V V J _.cXmXmXnXbXcX%X&X).).).|.XXlXvXvX$XC.v & % 3                                     ",
"                                  b c m K.%XnXnXcX_.L.:X>XV m T 4X4X<X:X:XY G K.|.@XlXD.f % % @                                 ",
"                              x b c H lXnX$XI.T 5X4XqX0X8XG b P :X;X,X-X2XeX=X:X>XL a V.XX(.f * # @                             ",
"                            x & v oXvX|.H >X<X,X2X-X=XJ b J b V x x l l l b J p.3X9X0XT @ a.`.D.6 * @                           ",
"                          l & c.xXoXH >X:X-X-XP G J I L P J =XF b b b b b l b 2 7 n ;X=X@ T x j.].s.O @                         ",
"                      l % 3 '.kXz.B ,X8X-Xb G K d.>XP I J J -X9.J x b b b b b b l 3 # o b ,X3Xc 0 /.V.@ # @                     ",
"                    l % x lX@Xv p.9X,XJ c P L.T P Y P P J J n p.=XJ x b b b x l 3 - l @ @ @ P 9XY O j./.6 O @                   ",
"                  7 % 9 lX(.4 z -XI x J P P P =XP P P P J J S x P ;XN b b b n l 7 % # @ 2 @ o S 1X2XO d /.6 O o                 ",
"                @ 3 n @XD.& l b 2 x K P P P K.P Y P P P J J S S l L.P l x x l l l # 9 2 @ @ @ o 3 -X-XO s /.2 o #               ",
"                l % XXD.1 :XP 2 J P J P P K [.H.T Y P J J S G b J b b b b x l l O h V.# @ @ @ # o # -X-X. s S.@ #               ",
"              @ % '.'.1 3X3Xb b -XJ J P P L '.xX&XK x J P G S b J b b x x l l O h S.j.# @ @ # @ @ o # 2X-XO d B.# #             ",
"            7 * l.XX2 =X2Xb x J ;XJ J P d.U |.#XvXD.B P J J b b b b b x x x % h S.B.j.% @ @ # # b @ x l 2XP . k.a.O #           ",
"            % 9 lXa z -XP l J G =XJ P P Y T '.lXkXxXH.A K J S b b b x b x * h S.B.B.j.# @ @ @ o @ o 7 o b 1Xb o S.8 O           ",
"          l % [.V.& ,Xp.@ J b J -XI P P 9.L [.xX#XlXkXJ.N K J S b b b b % h S.Z.B.B.j.@ @ @ @ 7 l o o o o P 3XO k Z.# #         ",
"        @ % h XX- -X3X@ b J J J -XI P P Y L P.kXkXlX@X@XH.N x J b x b % h S.Z.B.B.B.s # @ @ @ @ l @ l o o l -XP . j.s O         ",
"        % % {.s.B ,Xb x J S J J =XP P P Y P U C.kX@X@XOX@Xl.x N b b % h /.S.B.j.B.j % @ @ @ @ # o @ v @ @ o b x O 6 Z.@ #       ",
"        % h XX% -XP 2 S b J N N -XL K P Y Y P K C.kX@XOX].XXc.V b & z.].S.Z.j.{.z.F J b J b c o # o o o @ @ o J J . h.s O       ",
"      @ % /.l.m 2XZ l S N j D.D.H.'.'.P.U P P P A c.@X@X{.].{.v.4 5.`.S.Z.B.S.h % % @ @ # f a.d d d a.k o @ o D =X# 8 n.# #     ",
"      % 9 {.7 ;X;Xl l b D J v.{.{.OX@X@XH.U P P L K z.XX{.`.`.`.V.`.F.S.Z.S.h % @ @ @ O f k.g.g.g.k.s o o @ o - -Xb o k.0 O     ",
"      % v.D.3 ;XI l l x b J J c.XX{.XXOXkXH.K K P J B z.{.}.`.`.`.F.A.n.F.h % # @ @ O f k.g.g.<.g.s o o # @ # o P ,XX d 3.O     ",
"    l * /.5.A 3Xb x l b b S J A c.OXOXOX@XgXH.K J J J B z.`.W.W.F.A.A.A.h # l @ % O f n.h.g.<.h.s O @ 2 # # # # x J O 8 n.% @   ",
"    @ l }.9 -X-Xl x l b b D J I K c.OXOX#X#X+XP.K J J J N z.W.F.F.n.A.h % @ @ @ O f h.<.<.<.1.q # # o o # @ @ 7 # o o # n.7 3   ",
"    % 9 }.l =XP l l b J J b J P P T c.+X+X+X+X+Xc.K J J N N 5.Q.A.Q.h % 3 % l # t n.1.<.1.1.s O # @ @ @ @ 2 # 2 # @ @ o n.t %   ",
"    % h '.% 2 l l l P 9.Y D J J P P U C.+X+X X X+Xc.D J N J V h A.5.% 2 7 l O t b.1.1.1.1.t # @ 2 @ @ @ @ @ J l @ # # O 2.5.%   ",
"    % x.m.% l l b b S P P K G J P P I L H. X X XQ. XN.N J b S c C l l 2 2 # 9 M.1.1.1.1.g % l 2 @ 2 n 2 P 7 J l o # # + d 2.%   ",
"  @ % m.m.& x x l b b J P P J J P J P Y Y I.gXgXgX!.Q.5.K P K x J 3 l 7 # f Y.1.2.1.b.g 3 2 @ 2 @ 2 D 2 @ @ o @ l o # O g 2.4   ",
"  l % m.m.4 x x x x b b f.=XP J J J P x K :X6XjX.Xb.Q. XN.z b P v l % % g 7.6.d 2.7.q O @ @ l 2 2 @ o @ # 2 2 x 2 l x O u M.4 l ",
"  2 % G.x.N I b b x b N b S J I J I 3XS D D m M.Y.A.Q.R.U.t c b x b x - M.6.$.2.M.5.3 3 2 x x S x # l @ l 3 - l @ v v 3 t M.% l ",
"  2 & m.x.x J G x b S b P 3XI J J J J 3X1X:X6XhXhX*XU.Y.9.l x 2 l J x # w $.6.$.$.$.w % @ c l 2 # 7 o l 3 - z z @ @ n 3 t M.z l ",
"  2 4 m.m.z b b l b S b d.qXL J I J b f.f.I.hX~.^.^.U.5.b b b @ D l @ @ # 8 $.$.$.$.$.u 3 - 3 2 @ @ J @ o l # 2 l @ o O j 7.%   ",
"    & 5.Q.& x x b S D b f.4XI J J N D N 9.pXU.U.Y.R.5.z x l l 3 C l b b c c e $.;.;.;.;.e % 2 @ 7 @ b @ P l b l @ @ @ # 5.7.4   ",
"    % 5.Q.z c b b S S b f.9XI J G J m 5.R.T.T.Y.t.4.z l l 7 + u 7.u x b v b z p %.%.%.;.;.e 3 2 % @ @ @ @ @ J x @ + @ * 2.5.l   ",
"    % H !.v b x b S S G I ;XJ J J c 4.R.T.t.t.t.4.z z x z @ y >.:.:.i c x x x z p ;.#.#.#.=.e l l 7 @ @ % @ # 7 @ @ @ + 7.i l   ",
"    l n !.H b ;XG b S G J J K J c 4.iXT.t.t.y.4.z x n l % p :.:.=.:.:.i z x x x 4 > =.#.#./ / > 3 l l 7 l - 3 3 @ @ # 2 e.n %   ",
"    l 4 !.8.N 0XP N b J J I J c 4.iXy.y.y.r.8.3 z 3 l $ u :.-.=.=.=.=.=.i z x x x z 8 / / / / / > 3 @ l l 7 l l 4 d.x 0 e.l l   ",
"      z N.!.4 ,X3Xb J J I J M 4.iXtXr.w.r.,.3 P I D D u q.[ -.[ -.-.-.=.-.r m x x x 3 > / / / / [ > 3 2 l l x 3 N 3X3 %.8.3     ",
"      l C pXv Y 1XP b P J M 4.tXuXr.w.r.,.c z S b F 9.-.` } [ } #.[ } =.{ -.p c l l z 3 ; ' ! ! ! ` , 3 @ 2 l - P P # e.0 %     ",
"      x m !.N.N 2XP b P J H u.w.e.e.i.,.4 x x x 5 i q.} ] ] o.&.4 , | [ ' { [ e z x l G c > ^ ^ ^ : ^ > z l l x p.4 > 7.3 l     ",
"        V 8.pXN J =XI J J J b M V c b b b x b x *.o.] ] ] ] &.5 x c e | [ ' { ' , 3 x J x 5 l 3 l l z 3 - x @ P L.X >.&.3       ",
"        c b pXN.F 9X,Xb J G S b b b b b b v 5 *.O...] E ..) 5 z x x 4 i ` ' { ~ ! , V l 3 l z 3 l z 3 l l l 7 -X5 8 q.l @       ",
"        v M 8.aXS 3XwXP b S S S b b x x c 5 r o.E E E ..) 5 l n n x x c , ` ' ! ! ! 9.b 7 l - x d.m l 2 x @ J L O :.&.3         ",
"          b N aXE.F 0X8XS S S b b b c x v l ` X.E ] ..^ 4 x l l z n l x x > ! ! ~ ~ Q l z l l 2 2 2 l l @ S 3X3 > :.% 2         ",
"            F 9.dX9.Y 0X,Xb b b b b b x x 5 ` ..E ..) 4 l l x l z x x l x 5 < ` ~ ~ Q 3 7 l l x l l l l v 3Xb o q.> %           ",
"            J F E.dXD :XeX=Xb b b v x x x 3 ` ....) 3 l l z l l x n x l l x 5 > ! R ^ 2 l 3 b I l l l 2 d.U X =.#.$ @           ",
"              J F aXaXM 2X0XP l x x x x x 3 ! X.Q 4 l l l n x b b x x l l l x + H | ^ l 7 l 2 3 l l l ;Xb X , -.# %             ",
"                T L fXsXM 2X9XG l x x z x 3 ` _ 3 l l l l l b l x x x l l l z l D ) Q z 3 n l n x l ;X;X+ : o.@ %               ",
"                J T I fXu.M 9XwXP x l n l l < x l l l l l x l b b l l l l l - S P % ; l l 3 x l o =XP @ : q.- @ #               ",
"                  J L I fXu.V <X0X3Xx l l l 3 l 3 l l l x x l b b l l l l @ x P l l l l x x @ o @ l + : o.- + @                 ",
"                    J K J yXtXn f.4X,XJ l 7 l l 2 l l l l b b b l b b l l 2 b J l l x l 3 @ S @ O o ! } - + #                   ",
"                      J K N u.yX&.M <XP x b 2 3 l l 2 l n b x b x n l l l 7 P x l n @ % I -X;X+ - ] ' @ + @                     ",
"                          D M ,.yXw.v 5 P 0X-XJ b l 2 l x b b l x x l l 3 P J @ 2 @ b -X=Xb @ Q ..: + +                         ",
"                            S M Z w.uXi.n F :X3X-XJ =XN b b c x x l 2 @ l 7 2 b P P N F @ = E ` - + #                           ",
"                              b c c Z w.rX| , v F c ,X1X-X,X-X:XP # L Y ;X-X-XD F x ; = E W ; + + #                             ",
"                                  b c 4 , @.+.O.[ , ; J L L Y f.F O f.f.D b n ; = W E ! ; + + @                                 ",
"                                      x z 5 z r @.O.+.+.O.@.| R Q Q R R R W E E R : # + # o                                     ",
"                                          l l 5 4 z p *.,.@.@.o.o.` W Q Q < - o + + # @                                         ",
"                                                l l 4 z c c z 3 % + $ + O O o # @                                               ",
"                                                              % # #                                                             ",
"                                                                                                                                "
};
