/* XPM */
static char *_fe98e65d96c487c845a90d1322d6a9b[] = {
/* columns rows colors chars-per-pixel */
"16 16 180 2 ",
"   c None",
".  c gray9",
"X  c #1C1A1B",
"o  c #1D1C1C",
"O  c #1E1C1D",
"+  c #1F1E1E",
"@  c gray12",
"#  c #201716",
"$  c #201B1C",
"%  c #201D1C",
"&  c #231D1F",
"*  c #211E1F",
"=  c #201F1F",
"-  c #211F1F",
";  c #132F14",
":  c #112F17",
">  c #1D2C1F",
",  c #17351A",
"<  c #15321F",
"1  c #17341E",
"2  c #1C3C1E",
"3  c #211F20",
"4  c #231F22",
"5  c #321820",
"6  c #152020",
"7  c #142122",
"8  c #102524",
"9  c #1E2221",
"0  c #152F20",
"q  c #1E2920",
"w  c #152C29",
"e  c #162D29",
"r  c #152E2F",
"t  c #113529",
"y  c #193229",
"u  c #193528",
"i  c #1A322C",
"p  c #153B28",
"a  c #132F30",
"s  c #063936",
"d  c #0B3E34",
"f  c #0A3D39",
"g  c #173537",
"h  c #183436",
"j  c #1C3937",
"k  c #1E3B37",
"l  c #1E3D37",
"z  c #1B3A3A",
"x  c #193B3E",
"c  c #202020",
"v  c #222020",
"b  c #222022",
"n  c #202222",
"m  c #242323",
"M  c #252124",
"N  c #242224",
"B  c #242324",
"V  c #222525",
"C  c #272425",
"Z  c #262525",
"A  c #242625",
"S  c #272527",
"D  c gray15",
"F  c #282225",
"G  c #292525",
"H  c #292627",
"J  c #292727",
"K  c #262827",
"L  c #222C24",
"P  c #2A2129",
"I  c #2A2329",
"U  c #292629",
"Y  c #2C262A",
"T  c #252828",
"R  c #2B2829",
"E  c #2A2929",
"W  c #292A2B",
"Q  c #2B2A2A",
"!  c #2C2A2B",
"~  c #2A2C2B",
"^  c #2D2F2D",
"/  c #31222C",
"(  c #302928",
")  c #302E2E",
"_  c #3C2E2E",
"`  c #223A24",
"'  c #23372A",
"]  c #29342A",
"[  c #2B322E",
"{  c #2D322D",
"}  c #243333",
"|  c #283B31",
" . c #313030",
".. c #333031",
"X. c #303331",
"o. c #323232",
"O. c #363231",
"+. c #343335",
"@. c #303637",
"#. c #333737",
"$. c #343434",
"%. c #373636",
"&. c #393334",
"*. c #3B3335",
"=. c #3C3737",
"-. c #303E32",
";. c #333A34",
":. c #3A3638",
">. c #313B3B",
",. c #373838",
"<. c #36393A",
"1. c #3C393B",
"2. c #3D3A3A",
"3. c #3D3B3A",
"4. c #383E3F",
"5. c #084E12",
"6. c #0E401B",
"7. c #0F421F",
"8. c #0D481A",
"9. c #104118",
"0. c #10441A",
"q. c #085016",
"w. c #0C5118",
"e. c #0B4223",
"r. c #0F4127",
"t. c #0C4820",
"y. c #1A4020",
"u. c #114822",
"i. c #1F4E2D",
"p. c #005C21",
"a. c #064036",
"s. c #1B4132",
"d. c #16413D",
"f. c #1F4439",
"g. c #164A3D",
"h. c #005136",
"j. c #115D3E",
"k. c #224B27",
"l. c #2A4D33",
"z. c #086431",
"x. c #0E6634",
"c. c #353F40",
"v. c #433F41",
"b. c #094144",
"n. c #084545",
"m. c #0A4548",
"M. c #094A4D",
"N. c #1A4144",
"B. c #1F484B",
"V. c #115759",
"C. c #284244",
"Z. c #2D4445",
"A. c #314142",
"S. c #314343",
"D. c #324243",
"F. c #374647",
"G. c #3C4040",
"H. c #3D4546",
"J. c #295E44",
"K. c #3E5145",
"L. c #39594D",
"P. c #234C50",
"I. c #285053",
"U. c #295357",
"Y. c #33595C",
"T. c #106842",
"R. c #12625B",
"E. c #296040",
"W. c #115D60",
"Q. c #2B5F62",
"!. c #2C5F63",
"~. c #006362",
"^. c #0B6267",
"/. c #0F6B67",
"(. c #11686A",
"). c #11686D",
"_. c #12696E",
"`. c #147A63",
"'. c #47584F",
"]. c #445859",
/* pixels */
"                                ",
"            Q.!.U.I.P.          ",
"        B.Y.].H.,.c.F.C.h       ",
"      N.D.2.2.O...J % v >.h     ",
"    x c._ D.).$.( D b.6 # #.r   ",
"  a Z.^ D.2.).^.W M.m.3 6 @ } 8 ",
"  z #.Q V.).&.V.~.n.% d s . K w ",
"  j Q ..,./.R.X.d.9 a.s @ - X w ",
"  k P +._ '.`.g.5 t h.v 3 3 3 i ",
"  k ! v.) T.j.V p T r.e.@ 3 O y ",
"  l.l._ j.z.U t.p.u.C 7., 3 W u ",
"  z L.&.' C w.q.D 8.0.C 0 D | 0 ",
"    J.'.5 > 5.m I m 9.> I [ 0   ",
"      E.'.! v B D m U J L 1     ",
"        i.l.-.;.^ { ] ` :       ",
"            p k.2 , :           "
};
